<svg width="128" height="128" viewBox="0 0 128 128" fill="none" xmlns="http://www.w3.org/2000/svg">
<rect width="128" height="128" rx="23" fill="white"/>
<path d="M49.4375 36.5938C49.3438 34.4688 49.2969 32.8594 49.2969 31.7656C49.2969 30.6406 49.5156 29.8438 49.9531 29.375C50.3906 28.9062 52.1406 28.6719 55.2031 28.6719C58.2656 28.6719 60.0469 29.625 60.5469 31.5312C61.2031 33.9688 61.5312 42.7031 61.5312 57.7344C61.5312 72.7656 62.0938 81.2812 63.2188 83.2812C63.8438 84.375 65.1562 85.0469 67.1562 85.2969C69.1562 85.5469 73.2031 85.6719 79.2969 85.6719C85.3906 85.6719 88.7969 85.8594 89.5156 86.2344C90.7969 86.8906 91.4375 88.4688 91.4375 90.9688V92C91.4375 93.375 91.2031 94.3125 90.7344 94.8125C90.2656 95.3125 89 95.5625 86.9375 95.5625H80.4688L79.3906 95.5156H76.1562L70.7188 95.4219C61.5625 95.4219 56.1562 95.2969 54.5 95.0469C52.8438 94.8281 51.625 94.0781 50.8438 92.7969C50.0938 91.5156 49.7188 80.75 49.7188 60.5L49.5781 54.1719C49.5781 53.1406 49.5781 52.1094 49.5781 51.0781L49.5312 49.0156V43.8594L49.5781 41.7969C49.5781 41.1094 49.5781 40.4219 49.5781 39.7344L49.4375 36.5938Z" fill="#222222"/>
</svg>
